<?xml version="1.0"?>
<svg xmlns="http://www.w3.org/2000/svg" xmlns:xlink="http://www.w3.org/1999/xlink" id="Layer_1" data-name="Layer 1" viewBox="0 0 512 512" width="512" height="512"><defs><linearGradient id="linear-gradient" x1="214.57" y1="492" x2="214.57" y2="7.405" gradientUnits="userSpaceOnUse"><stop offset="0.322" stop-color="#a163f5"/><stop offset="0.466" stop-color="#b074ee"/><stop offset="0.752" stop-color="#d8a1dd"/><stop offset="0.898" stop-color="#efbad3"/></linearGradient><linearGradient id="linear-gradient-2" x1="304.488" y1="492" x2="304.488" y2="7.405" xlink:href="#linear-gradient"/><linearGradient id="linear-gradient-3" x1="256" y1="492" x2="256" y2="7.405" xlink:href="#linear-gradient"/></defs><title>Block ads</title><path d="M256.11,296.384v-.075L223.446,189.831c-1.088-3.447-5.2-4.99-8.8-4.99-3.529,0-7.693,1.312-8.8,4.994L173.214,296.226l-.094.269a3.222,3.222,0,0,0-.251,1.168c0,3.779,5.044,6.1,8.66,6.1,2.792,0,4.774-1.237,5.439-3.4l6.934-23.482h41.334l6.936,23.488c.654,2.124,2.627,3.393,5.278,3.393,4.079,0,8.821-2.735,8.821-6.26a2.527,2.527,0,0,0-.081-.557A2.443,2.443,0,0,1,256.11,296.384Zm-24.369-31.541h-34.5l17.4-57.91Z" style="fill:url(#linear-gradient)"/><path d="M304.408,185.8H276.087c-4.119,0-6.58,2.613-6.58,5.14V298.624c0,2.526,2.461,5.14,6.58,5.14h28.321c22.609,0,35.06-12.566,35.06-35.381v-47.2C339.468,198.366,327.017,185.8,304.408,185.8Zm0,104.8H283.947V198.961h20.461c13.489,0,20.62,7.684,20.62,22.221v47.2C325.028,282.92,317.9,290.6,304.408,290.6Z" style="fill:url(#linear-gradient-2)"/><path d="M256,90a165.466,165.466,0,0,0-116.7,48.068,6.071,6.071,0,0,0-.676.553,5.971,5.971,0,0,0-.552.676A165.462,165.462,0,0,0,90,256c0,91.533,74.467,166,166,166a165.462,165.462,0,0,0,116.7-48.069,4.343,4.343,0,0,0,1.228-1.228A165.462,165.462,0,0,0,422,256C422,164.467,347.533,90,256,90ZM369,360.512l-50.655-50.656a6,6,0,0,0-8.486,8.485L360.512,369A153.412,153.412,0,0,1,256,410c-84.916,0-154-69.084-154-154a153.418,153.418,0,0,1,41-104.512l48.681,48.681a6,6,0,1,0,8.485-8.484L151.488,143A153.412,153.412,0,0,1,256,102c84.916,0,154,69.084,154,154A153.418,153.418,0,0,1,369,360.512Z" style="fill:url(#linear-gradient-3)"/><path d="M256,50C142.411,50,50,142.411,50,256s92.411,206,206,206,206-92.411,206-206S369.589,50,256,50Zm0,400C149.028,450,62,362.972,62,256S149.028,62,256,62s194,87.028,194,194S362.972,450,256,450Z" style="fill:url(#linear-gradient-3)"/></svg>
